<svg xmlns="http://www.w3.org/2000/svg" viewBox="0 0 140.36 54.72"><defs><style>.cls-1{fill:#fcfcfc;}</style></defs><title>Asset 1</title><g id="Layer_2" data-name="Layer 2"><g id="Layer_4" data-name="Layer 4"><path class="cls-1" d="M61.86,12.81H55.12v-.69l.64-.05a2,2,0,0,0,.58-.11.86.86,0,0,0,.45-.35,1.1,1.1,0,0,0,.12-.55V6.78H51.58V11a1.12,1.12,0,0,0,.13.54.85.85,0,0,0,.44.37,3.26,3.26,0,0,0,.57.15,5.59,5.59,0,0,0,.66.1v.69H46.63v-.69l.65-.06A3,3,0,0,0,47.9,12a.76.76,0,0,0,.44-.35,1.16,1.16,0,0,0,.12-.55V2.23a1.11,1.11,0,0,0-.11-.52.92.92,0,0,0-.45-.37,3.58,3.58,0,0,0-.67-.21,5.52,5.52,0,0,0-.6-.11V.34h6.74V1a5.61,5.61,0,0,0-.65.09,5.7,5.7,0,0,0-.58.13.7.7,0,0,0-.45.36,1.31,1.31,0,0,0-.11.53V5.87h5.33V2.23a1.08,1.08,0,0,0-.11-.52.94.94,0,0,0-.46-.37,3.41,3.41,0,0,0-.61-.2A5.38,5.38,0,0,0,55.12,1V.34h6.74V1q-.28,0-.63.07a4.61,4.61,0,0,0-.63.15.71.71,0,0,0-.45.36,1.26,1.26,0,0,0-.11.54V11a1.15,1.15,0,0,0,.11.54.88.88,0,0,0,.45.37,3,3,0,0,0,.61.16,6.54,6.54,0,0,0,.65.09Z"/><path class="cls-1" d="M80.35,12.81H73.59v-.69l.73-.09a2.57,2.57,0,0,0,.59-.13.93.93,0,0,0,.47-.36,1.09,1.09,0,0,0,.14-.58V1.65l-4.29,11H70.13q-.08-.29-.39-1.15l-.51-1.38L66.08,1.51V9.1a7.13,7.13,0,0,0,.15,1.66,1.51,1.51,0,0,0,.47.83,2.3,2.3,0,0,0,.79.35,5.63,5.63,0,0,0,.8.19v.69H62.91v-.69l.72-.12a2,2,0,0,0,.81-.32,1.28,1.28,0,0,0,.47-.83A8.59,8.59,0,0,0,65,9.19V3a2.68,2.68,0,0,0-.14-.94,1.32,1.32,0,0,0-.42-.59,1.79,1.79,0,0,0-.72-.35A5.33,5.33,0,0,0,63,1V.34h5.75l3.07,8.22,2.59-6.67A8.74,8.74,0,0,0,74.68,1a4.89,4.89,0,0,0,.13-.67h5.52V1a5.53,5.53,0,0,0-.59.07,4.55,4.55,0,0,0-.59.14.7.7,0,0,0-.45.36,1.32,1.32,0,0,0-.11.54V11a1.16,1.16,0,0,0,.11.53.91.91,0,0,0,.45.37,2.64,2.64,0,0,0,.58.15l.62.1Z"/><path class="cls-1" d="M88.32,13.16a7.3,7.3,0,0,1-2.57-.44,6,6,0,0,1-2.08-1.29,5.84,5.84,0,0,1-1.37-2,7,7,0,0,1-.5-2.68A7,7,0,0,1,82.3,4a6.38,6.38,0,0,1,1.42-2.14A6.22,6.22,0,0,1,85.87.49,7.37,7.37,0,0,1,88.56,0a6.58,6.58,0,0,1,1.89.25A7.77,7.77,0,0,1,91.9.83l.54-.48h.76l.08,4.55h-.77a8,8,0,0,0-1.58-3.07,3,3,0,0,0-2.25-1,2.75,2.75,0,0,0-2.51,1.46,8.09,8.09,0,0,0-.86,4.09,9.56,9.56,0,0,0,.29,2.54,5.2,5.2,0,0,0,.77,1.69,3.11,3.11,0,0,0,1.2,1,3.69,3.69,0,0,0,1.54.31,3.75,3.75,0,0,0,2.19-.67,6.22,6.22,0,0,0,1.75-2l.76.46a7.59,7.59,0,0,1-.86,1.38,5.2,5.2,0,0,1-1.12,1.05,5.8,5.8,0,0,1-1.53.76A6.44,6.44,0,0,1,88.32,13.16Z"/><path class="cls-1" d="M35.57,22.46a3.6,3.6,0,0,1-.44,1.81,3.46,3.46,0,0,1-1.2,1.23,5.65,5.65,0,0,1-1.81.71,10.82,10.82,0,0,1-2.28.22h-1V30a1.2,1.2,0,0,0,.12.55.85.85,0,0,0,.45.37A3.59,3.59,0,0,0,30,31q.4.08.67.11v.69H23.88v-.69l.68-.07a2.41,2.41,0,0,0,.59-.12.86.86,0,0,0,.45-.34,1.19,1.19,0,0,0,.11-.56v-8.8a1.24,1.24,0,0,0-.11-.53.83.83,0,0,0-.46-.37,3.47,3.47,0,0,0-.65-.19L23.88,20v-.69h6.88a6.77,6.77,0,0,1,3.61.77A2.6,2.6,0,0,1,35.57,22.46Zm-3.43.45a3.22,3.22,0,0,0-.57-2.09,2.51,2.51,0,0,0-2-.68h-.73v5.48h.37A3.22,3.22,0,0,0,31.4,25,2.59,2.59,0,0,0,32.15,22.91Z"/><path class="cls-1" d="M45.31,24.7a1.8,1.8,0,0,1-.41,1.17,1.34,1.34,0,0,1-1.09.51,1.79,1.79,0,0,1-1.09-.32,1.11,1.11,0,0,1-.44-1,2,2,0,0,1,0-.48l.08-.32a1.86,1.86,0,0,0-.85.28,2.8,2.8,0,0,0-.79.7v4.83a1.18,1.18,0,0,0,.1.51.68.68,0,0,0,.33.32,2.27,2.27,0,0,0,.63.16l.63.07v.64H36.55v-.64l.44,0a2.14,2.14,0,0,0,.38-.08.65.65,0,0,0,.39-.3,1.14,1.14,0,0,0,.11-.53V25.1a1.09,1.09,0,0,0-.15-.57,1.29,1.29,0,0,0-.36-.4A1.45,1.45,0,0,0,37,24a2.82,2.82,0,0,0-.53-.1v-.64L40.62,23l.13.13V24.4h0a5.18,5.18,0,0,1,1.29-1.1,2.76,2.76,0,0,1,1.42-.4,1.76,1.76,0,0,1,1.31.51A1.78,1.78,0,0,1,45.31,24.7Z"/><path class="cls-1" d="M55.51,29.71a5.35,5.35,0,0,1-.74.95,4.51,4.51,0,0,1-1,.76,5.42,5.42,0,0,1-1.19.51,5.07,5.07,0,0,1-1.38.17A6.16,6.16,0,0,1,49,31.73a4.41,4.41,0,0,1-1.56-1,4,4,0,0,1-.92-1.47,5.43,5.43,0,0,1-.3-1.84,4.62,4.62,0,0,1,1.27-3.18,4.48,4.48,0,0,1,1.51-1,5.15,5.15,0,0,1,2-.39,5.79,5.79,0,0,1,2,.3,3.58,3.58,0,0,1,1.31.83A3,3,0,0,1,55,25.15a4.46,4.46,0,0,1,.23,1.43v.57H49.33A4.57,4.57,0,0,0,50,29.89a2.9,2.9,0,0,0,3.69.49,4.24,4.24,0,0,0,1.13-1.15Zm-3.36-3.34q0-.53-.05-1.08a3.6,3.6,0,0,0-.18-.91,1.39,1.39,0,0,0-.41-.62,1,1,0,0,0-.65-.21,1.22,1.22,0,0,0-1.08.69,4.66,4.66,0,0,0-.44,2.17Z"/><path class="cls-1" d="M61.51,32.1a6,6,0,0,1-2.16-.36,4.25,4.25,0,0,1-1.54-1,4,4,0,0,1-.91-1.48,5.57,5.57,0,0,1-.3-1.85A4.26,4.26,0,0,1,57,25.7a4.57,4.57,0,0,1,2.58-2.47,5.61,5.61,0,0,1,2.1-.38,4.65,4.65,0,0,1,2.56.61,1.88,1.88,0,0,1,.94,1.65,1.5,1.5,0,0,1-.33,1,1.46,1.46,0,0,1-1.15.39,1.85,1.85,0,0,1-1.1-.32,1,1,0,0,1-.44-.83,2.68,2.68,0,0,1,.14-.85,3.59,3.59,0,0,0,.17-.64.67.67,0,0,0-.25-.24,1,1,0,0,0-.47-.08,1.43,1.43,0,0,0-.72.18,1.78,1.78,0,0,0-.61.65A3.81,3.81,0,0,0,60,25.56a8.37,8.37,0,0,0-.16,1.78,4,4,0,0,0,.73,2.52,2.16,2.16,0,0,0,1.75,1,2.51,2.51,0,0,0,1.55-.43,3.92,3.92,0,0,0,1-1.24l.66.46a5,5,0,0,1-.65,1,4.14,4.14,0,0,1-.91.79,4.73,4.73,0,0,1-1.12.54A4.32,4.32,0,0,1,61.51,32.1Z"/><path class="cls-1" d="M71.75,31.81H66.2v-.64l.45,0A1.56,1.56,0,0,0,67,31a.73.73,0,0,0,.4-.3,1,1,0,0,0,.11-.52V25.1a1,1,0,0,0-.14-.54,1.16,1.16,0,0,0-.35-.37,1.87,1.87,0,0,0-.48-.2,3.12,3.12,0,0,0-.58-.12v-.64L70.29,23l.13.13v7a1,1,0,0,0,.13.52.8.8,0,0,0,.38.32,3,3,0,0,0,.39.14,2.65,2.65,0,0,0,.44.09Zm-1.28-12A1.49,1.49,0,0,1,70,21a1.82,1.82,0,0,1-2.44,0,1.52,1.52,0,0,1,0-2.28,1.82,1.82,0,0,1,2.45,0A1.51,1.51,0,0,1,70.47,19.83Z"/><path class="cls-1" d="M76.78,32.11a5.63,5.63,0,0,1-1.67-.25,5.45,5.45,0,0,1-1.26-.53l-.26.6H72.9l-.11-3.28h.64a4.36,4.36,0,0,0,.44.89,4.91,4.91,0,0,0,.7.89,4,4,0,0,0,.94.67,2.46,2.46,0,0,0,1.14.27,1.89,1.89,0,0,0,1.19-.31,1.16,1.16,0,0,0,.39-1,.92.92,0,0,0-.18-.58,1.5,1.5,0,0,0-.48-.4,4.47,4.47,0,0,0-.75-.3l-1-.3a9.7,9.7,0,0,1-1-.36,3.51,3.51,0,0,1-.88-.57,2.48,2.48,0,0,1-.87-2,2.37,2.37,0,0,1,1-2,4.5,4.5,0,0,1,2.73-.76,6.26,6.26,0,0,1,1.47.16,7.42,7.42,0,0,1,1.13.36l.18-.52h.67l.14,3h-.62a3.63,3.63,0,0,0-1.05-1.58,2.38,2.38,0,0,0-1.61-.66,1.78,1.78,0,0,0-1.06.28.91.91,0,0,0-.39.78,1,1,0,0,0,.57,1,7.58,7.58,0,0,0,1.58.56,5.16,5.16,0,0,1,2.3,1.1,2.36,2.36,0,0,1,.73,1.78,2.57,2.57,0,0,1-1.13,2.23A5,5,0,0,1,76.78,32.11Z"/><path class="cls-1" d="M87.63,31.81H82.08v-.64l.45,0a1.56,1.56,0,0,0,.38-.09.73.73,0,0,0,.4-.3,1,1,0,0,0,.11-.52V25.1a1,1,0,0,0-.14-.54,1.16,1.16,0,0,0-.35-.37,1.87,1.87,0,0,0-.48-.2,3.12,3.12,0,0,0-.58-.12v-.64L86.17,23l.13.13v7a1,1,0,0,0,.13.52.8.8,0,0,0,.38.32,3,3,0,0,0,.39.14,2.65,2.65,0,0,0,.44.09Zm-1.28-12A1.49,1.49,0,0,1,85.84,21a1.82,1.82,0,0,1-2.44,0,1.52,1.52,0,0,1,0-2.28,1.82,1.82,0,0,1,2.45,0A1.51,1.51,0,0,1,86.35,19.83Z"/><path class="cls-1" d="M97.56,24.13a4,4,0,0,1,1,1.45,4.81,4.81,0,0,1,.34,1.83,5,5,0,0,1-.34,1.84,4,4,0,0,1-1,1.48,4.73,4.73,0,0,1-1.66,1,6.4,6.4,0,0,1-2.2.35,6.07,6.07,0,0,1-2-.31,4.64,4.64,0,0,1-1.6-.92,4.18,4.18,0,0,1-1.05-1.45,4.7,4.7,0,0,1-.39-1.94A4.89,4.89,0,0,1,89,25.6a4.21,4.21,0,0,1,1-1.46,4.48,4.48,0,0,1,1.6-1,7,7,0,0,1,4.3,0A4.69,4.69,0,0,1,97.56,24.13Zm-2.25,6.09A5.11,5.11,0,0,0,95.6,29a12.73,12.73,0,0,0,.09-1.63A12.89,12.89,0,0,0,95.6,26a5.19,5.19,0,0,0-.26-1.25,2.08,2.08,0,0,0-.58-.87,1.6,1.6,0,0,0-1.94,0,2.24,2.24,0,0,0-.58.89A4.87,4.87,0,0,0,92,26a13.48,13.48,0,0,0-.07,1.4q0,1,.06,1.59a5,5,0,0,0,.3,1.26,2,2,0,0,0,.58.86,1.58,1.58,0,0,0,1.86,0A2,2,0,0,0,95.31,30.22Z"/><path class="cls-1" d="M111.78,31.81h-5.28v-.64l.4,0a1.11,1.11,0,0,0,.36-.09.56.56,0,0,0,.26-.28,1.45,1.45,0,0,0,.08-.54V26.1a2.28,2.28,0,0,0-.33-1.35,1.13,1.13,0,0,0-1-.45,2,2,0,0,0-.66.11,2.43,2.43,0,0,0-.59.31,2,2,0,0,0-.41.36l-.26.33v4.72a1.32,1.32,0,0,0,.09.51.61.61,0,0,0,.29.31,1.68,1.68,0,0,0,.35.14,2.74,2.74,0,0,0,.41.09v.64h-5.34v-.64l.44,0A2.15,2.15,0,0,0,101,31a.65.65,0,0,0,.39-.3,1.14,1.14,0,0,0,.11-.53V25.1a1.13,1.13,0,0,0-.14-.54,1.26,1.26,0,0,0-.37-.43,1.45,1.45,0,0,0-.4-.18,2.81,2.81,0,0,0-.53-.1v-.64l4.19-.23.13.13V24.4h0l.6-.53a5.76,5.76,0,0,1,.65-.5,3.16,3.16,0,0,1,.85-.36,4.11,4.11,0,0,1,1.13-.15,2.71,2.71,0,0,1,2.15.81,3.15,3.15,0,0,1,.72,2.16v4.31a1.17,1.17,0,0,0,.1.52A.68.68,0,0,0,111,31l.35.12a2.54,2.54,0,0,0,.47.09Z"/><path class="cls-1" d="M17.44,50.81H10.68v-.69l.73-.09a2.57,2.57,0,0,0,.59-.13.93.93,0,0,0,.47-.36,1.09,1.09,0,0,0,.14-.58V39.65l-4.29,11H7.22q-.08-.29-.39-1.15l-.51-1.38L3.16,39.51V47.1a7.14,7.14,0,0,0,.15,1.66,1.52,1.52,0,0,0,.47.83,2.3,2.3,0,0,0,.79.35,5.63,5.63,0,0,0,.8.19v.69H0v-.69L.72,50a2,2,0,0,0,.81-.32A1.28,1.28,0,0,0,2,48.86a8.6,8.6,0,0,0,.12-1.67V41A2.69,2.69,0,0,0,2,40.08a1.33,1.33,0,0,0-.42-.59,1.79,1.79,0,0,0-.72-.35A5.33,5.33,0,0,0,.1,39v-.69H5.84l3.07,8.22,2.59-6.67a8.86,8.86,0,0,0,.25-.88,4.92,4.92,0,0,0,.13-.67h5.52V39a5.53,5.53,0,0,0-.59.07,4.55,4.55,0,0,0-.59.14.7.7,0,0,0-.45.36,1.32,1.32,0,0,0-.11.54V49a1.16,1.16,0,0,0,.11.53.91.91,0,0,0,.45.37,2.65,2.65,0,0,0,.58.15l.62.1Z"/><path class="cls-1" d="M28.81,50.63a6.63,6.63,0,0,1-.91.31,4.3,4.3,0,0,1-1.11.14,3.06,3.06,0,0,1-1.59-.32,1.61,1.61,0,0,1-.69-.92h-.05a5.77,5.77,0,0,1-.58.51,3.31,3.31,0,0,1-.59.36,4.49,4.49,0,0,1-.8.29,4.59,4.59,0,0,1-1.07.1,2.63,2.63,0,0,1-1.74-.6A2,2,0,0,1,19,48.9a2.64,2.64,0,0,1,.16-1,2.19,2.19,0,0,1,.45-.71,2.36,2.36,0,0,1,.61-.47,6.82,6.82,0,0,1,.76-.34q.79-.29,1.9-.6a10.75,10.75,0,0,0,1.62-.56V44.4q0-.22,0-.58a1.88,1.88,0,0,0-.15-.61,1.16,1.16,0,0,0-.39-.47,1.15,1.15,0,0,0-.69-.19,1.66,1.66,0,0,0-.65.11,2.15,2.15,0,0,0-.42.22,3.46,3.46,0,0,0,.15.54,2.13,2.13,0,0,1,.12.69,1.17,1.17,0,0,1-.08.37.83.83,0,0,1-.23.36,1.52,1.52,0,0,1-.45.27,2.29,2.29,0,0,1-.77.1,1.58,1.58,0,0,1-1.12-.36,1.26,1.26,0,0,1,0-1.81,3.2,3.2,0,0,1,1-.65A5.43,5.43,0,0,1,22,42a6.73,6.73,0,0,1,1.34-.15,11.33,11.33,0,0,1,1.56.1,3.72,3.72,0,0,1,1.28.42,2.23,2.23,0,0,1,.87.89,3.16,3.16,0,0,1,.32,1.52q0,1,0,2.36t0,1.79a1.37,1.37,0,0,0,.12.62.76.76,0,0,0,.36.34,1.28,1.28,0,0,0,.47.08h.58Zm-4.36-4.58q-.49.17-1,.38a3.94,3.94,0,0,0-.79.45,1.72,1.72,0,0,0-.51.63,2.06,2.06,0,0,0-.19.9,1.35,1.35,0,0,0,.31,1,1.06,1.06,0,0,0,.77.31,1.47,1.47,0,0,0,.8-.2,2.28,2.28,0,0,0,.55-.49Z"/><path class="cls-1" d="M41.24,50.81H36v-.64l.4,0a1.11,1.11,0,0,0,.36-.09.56.56,0,0,0,.26-.28,1.45,1.45,0,0,0,.08-.54V45.1a2.28,2.28,0,0,0-.33-1.35,1.13,1.13,0,0,0-1-.45,2,2,0,0,0-.66.11,2.45,2.45,0,0,0-.59.31,2,2,0,0,0-.41.36l-.26.33v4.72a1.32,1.32,0,0,0,.09.51.61.61,0,0,0,.29.31,1.68,1.68,0,0,0,.35.14,2.74,2.74,0,0,0,.41.09v.64H29.63v-.64l.44,0a2.14,2.14,0,0,0,.38-.08.65.65,0,0,0,.39-.3,1.14,1.14,0,0,0,.11-.53V44.1a1.13,1.13,0,0,0-.14-.54,1.26,1.26,0,0,0-.37-.43A1.45,1.45,0,0,0,30,43a2.82,2.82,0,0,0-.53-.1v-.64L33.7,42l.13.13V43.4h0l.6-.53a5.76,5.76,0,0,1,.65-.5A3.16,3.16,0,0,1,36,42a4.11,4.11,0,0,1,1.13-.15,2.71,2.71,0,0,1,2.15.81A3.14,3.14,0,0,1,40,44.83v4.31a1.17,1.17,0,0,0,.1.52.68.68,0,0,0,.36.31l.35.12a2.54,2.54,0,0,0,.47.09Z"/><path class="cls-1" d="M53.66,50.63l-4.19.25-.13-.12V49.61h-.05l-.58.53a3.36,3.36,0,0,1-.68.47,4.41,4.41,0,0,1-.85.35,4.49,4.49,0,0,1-1.16.11,2.57,2.57,0,0,1-2-.8A3.3,3.3,0,0,1,43.27,48v-4a1.07,1.07,0,0,0-.13-.56,1.41,1.41,0,0,0-.35-.38,1.12,1.12,0,0,0-.45-.19,4.17,4.17,0,0,0-.51-.08v-.64L46.07,42l.1.13V48a2.11,2.11,0,0,0,.35,1.34,1.16,1.16,0,0,0,1,.43,2,2,0,0,0,1.12-.33,2.33,2.33,0,0,0,.73-.69V44a1.22,1.22,0,0,0-.11-.54,1,1,0,0,0-.33-.39,1,1,0,0,0-.45-.14l-.6-.05v-.64L52.08,42l.13.13v6.79a1,1,0,0,0,.48.89,1.09,1.09,0,0,0,.43.14,4.45,4.45,0,0,0,.53,0Z"/><path class="cls-1" d="M62.84,38.7a1.89,1.89,0,0,1-.07.48,1.12,1.12,0,0,1-.23.45,1.3,1.3,0,0,1-.41.33,1.59,1.59,0,0,1-.69.11,1.33,1.33,0,0,1-1.09-.48A6.42,6.42,0,0,1,59.51,38a1.21,1.21,0,0,0-.57.77,10,10,0,0,0-.22,2.68v.69h2.43v1H58.73v6a.8.8,0,0,0,.16.53.91.91,0,0,0,.41.28,4.48,4.48,0,0,0,.55.14l.62.09v.64H54.53v-.64l.45,0a1.72,1.72,0,0,0,.38-.09.67.67,0,0,0,.39-.3,1.14,1.14,0,0,0,.1-.52V43.09H54.07v-1h1.78a6.13,6.13,0,0,1,.27-1.82A4.57,4.57,0,0,1,57,38.74a4,4,0,0,1,1.46-1.11,5,5,0,0,1,2.13-.42,2.94,2.94,0,0,1,1.69.41A1.26,1.26,0,0,1,62.84,38.7Z"/><path class="cls-1" d="M71.79,50.63a6.65,6.65,0,0,1-.91.31,4.3,4.3,0,0,1-1.11.14,3.06,3.06,0,0,1-1.59-.32,1.61,1.61,0,0,1-.69-.92h-.05a5.77,5.77,0,0,1-.58.51,3.31,3.31,0,0,1-.59.36,4.49,4.49,0,0,1-.8.29,4.59,4.59,0,0,1-1.07.1,2.63,2.63,0,0,1-1.74-.6,2,2,0,0,1-.72-1.6,2.64,2.64,0,0,1,.16-1,2.19,2.19,0,0,1,.45-.71,2.36,2.36,0,0,1,.61-.47,6.82,6.82,0,0,1,.76-.34q.79-.29,1.9-.6a10.75,10.75,0,0,0,1.62-.56V44.4q0-.22,0-.58a1.88,1.88,0,0,0-.15-.61,1.16,1.16,0,0,0-.39-.47,1.15,1.15,0,0,0-.69-.19,1.66,1.66,0,0,0-.65.11,2.15,2.15,0,0,0-.42.22,3.46,3.46,0,0,0,.15.54,2.13,2.13,0,0,1,.12.69,1.17,1.17,0,0,1-.08.37.83.83,0,0,1-.23.36,1.52,1.52,0,0,1-.45.27,2.29,2.29,0,0,1-.77.1,1.58,1.58,0,0,1-1.12-.36,1.26,1.26,0,0,1,0-1.81,3.2,3.2,0,0,1,1-.65A5.43,5.43,0,0,1,65,42a6.73,6.73,0,0,1,1.34-.15,11.33,11.33,0,0,1,1.56.1,3.72,3.72,0,0,1,1.28.42,2.23,2.23,0,0,1,.87.89,3.16,3.16,0,0,1,.32,1.52q0,1,0,2.36t0,1.79a1.37,1.37,0,0,0,.12.62.76.76,0,0,0,.36.34,1.28,1.28,0,0,0,.47.08h.58Zm-4.36-4.58q-.49.17-1,.38a3.94,3.94,0,0,0-.79.45,1.72,1.72,0,0,0-.51.63,2.06,2.06,0,0,0-.19.9,1.35,1.35,0,0,0,.31,1,1.06,1.06,0,0,0,.77.31,1.47,1.47,0,0,0,.8-.2,2.28,2.28,0,0,0,.55-.49Z"/><path class="cls-1" d="M77.63,51.1a6.07,6.07,0,0,1-2.16-.36,4.26,4.26,0,0,1-1.54-1A4,4,0,0,1,73,48.29a5.57,5.57,0,0,1-.3-1.85,4.26,4.26,0,0,1,.36-1.74,4.58,4.58,0,0,1,2.58-2.47,5.63,5.63,0,0,1,2.11-.38,4.66,4.66,0,0,1,2.56.61,1.88,1.88,0,0,1,.94,1.65,1.5,1.5,0,0,1-.33,1,1.46,1.46,0,0,1-1.15.39,1.85,1.85,0,0,1-1.1-.32,1,1,0,0,1-.44-.83,2.68,2.68,0,0,1,.14-.85,3.59,3.59,0,0,0,.17-.64.68.68,0,0,0-.25-.24,1,1,0,0,0-.47-.08,1.43,1.43,0,0,0-.72.18,1.78,1.78,0,0,0-.61.65,3.81,3.81,0,0,0-.44,1.18,8.37,8.37,0,0,0-.16,1.78,4,4,0,0,0,.73,2.52,2.16,2.16,0,0,0,1.75,1A2.51,2.51,0,0,0,80,49.38a3.9,3.9,0,0,0,1-1.23l.66.46a5,5,0,0,1-.65,1,4.14,4.14,0,0,1-.91.79,4.73,4.73,0,0,1-1.12.54A4.32,4.32,0,0,1,77.63,51.1Z"/><path class="cls-1" d="M88.85,50.41a11.12,11.12,0,0,1-1.2.44,5.33,5.33,0,0,1-1.56.2,2.76,2.76,0,0,1-2-.67,2.59,2.59,0,0,1-.66-1.91V43.09H81.81v-1h1.62V39.47h2.85v2.66h2.47v1H86.29V47.9a2.74,2.74,0,0,0,.29,1.46,1.14,1.14,0,0,0,1,.43l.66,0a4,4,0,0,0,.59-.08Z"/><path class="cls-1" d="M101.07,50.63l-4.19.25-.13-.12V49.61H96.7l-.58.53a3.37,3.37,0,0,1-.68.47,4.43,4.43,0,0,1-.85.35,4.48,4.48,0,0,1-1.16.11,2.57,2.57,0,0,1-2-.8A3.3,3.3,0,0,1,90.69,48v-4a1.07,1.07,0,0,0-.13-.56,1.42,1.42,0,0,0-.35-.38,1.12,1.12,0,0,0-.45-.19,4.17,4.17,0,0,0-.51-.08v-.64L93.49,42l.1.13V48a2.11,2.11,0,0,0,.35,1.34,1.16,1.16,0,0,0,1,.43A2,2,0,0,0,96,49.41a2.34,2.34,0,0,0,.73-.69V44a1.22,1.22,0,0,0-.11-.54,1,1,0,0,0-.33-.39,1,1,0,0,0-.45-.14l-.6-.05v-.64L99.5,42l.13.13v6.79a1,1,0,0,0,.48.89,1.09,1.09,0,0,0,.43.14,4.46,4.46,0,0,0,.53,0Z"/><path class="cls-1" d="M110.69,43.7a1.8,1.8,0,0,1-.41,1.17,1.34,1.34,0,0,1-1.09.51,1.79,1.79,0,0,1-1.08-.32,1.11,1.11,0,0,1-.44-1,2,2,0,0,1,0-.48l.08-.32a1.87,1.87,0,0,0-.85.28,2.81,2.81,0,0,0-.79.7v4.83a1.18,1.18,0,0,0,.1.51.68.68,0,0,0,.33.32,2.25,2.25,0,0,0,.63.16c.29,0,.5.07.63.08v.64h-5.88v-.64l.44,0a2.14,2.14,0,0,0,.38-.08.65.65,0,0,0,.39-.3,1.14,1.14,0,0,0,.11-.53V44.1a1.08,1.08,0,0,0-.15-.57,1.28,1.28,0,0,0-.36-.4,1.45,1.45,0,0,0-.4-.18,2.82,2.82,0,0,0-.53-.1v-.64L106,42l.13.13V43.4h0a5.2,5.2,0,0,1,1.29-1.1,2.77,2.77,0,0,1,1.42-.4,1.76,1.76,0,0,1,1.31.5A1.79,1.79,0,0,1,110.69,43.7Z"/><path class="cls-1" d="M117,50.81h-5.55v-.64l.45,0a1.56,1.56,0,0,0,.38-.09.73.73,0,0,0,.4-.3,1,1,0,0,0,.11-.52V44.1a1,1,0,0,0-.14-.54,1.17,1.17,0,0,0-.35-.37,1.87,1.87,0,0,0-.48-.2,3.12,3.12,0,0,0-.58-.12v-.64l4.31-.23.13.13v7a1,1,0,0,0,.13.52.79.79,0,0,0,.38.32,3,3,0,0,0,.39.14,2.65,2.65,0,0,0,.44.09Zm-1.28-12A1.49,1.49,0,0,1,115.2,40a1.82,1.82,0,0,1-2.44,0,1.52,1.52,0,0,1,0-2.28,1.82,1.82,0,0,1,2.45,0A1.51,1.51,0,0,1,115.72,38.83Z"/><path class="cls-1" d="M129.55,50.81h-5.28v-.64l.4,0A1.11,1.11,0,0,0,125,50a.56.56,0,0,0,.26-.28,1.45,1.45,0,0,0,.08-.54V45.1a2.29,2.29,0,0,0-.33-1.35,1.13,1.13,0,0,0-1-.45,2,2,0,0,0-.66.11,2.47,2.47,0,0,0-.59.31,2.06,2.06,0,0,0-.41.36l-.26.33v4.72a1.32,1.32,0,0,0,.09.51.61.61,0,0,0,.29.31,1.68,1.68,0,0,0,.35.14,2.74,2.74,0,0,0,.41.09v.64H118v-.64l.44,0a2.14,2.14,0,0,0,.38-.08.65.65,0,0,0,.39-.3,1.14,1.14,0,0,0,.11-.53V44.1a1.13,1.13,0,0,0-.14-.54,1.26,1.26,0,0,0-.37-.43,1.45,1.45,0,0,0-.4-.18,2.82,2.82,0,0,0-.53-.1v-.64L122,42l.13.13V43.4h0l.6-.53a5.76,5.76,0,0,1,.65-.5,3.16,3.16,0,0,1,.85-.36,4.11,4.11,0,0,1,1.13-.15,2.72,2.72,0,0,1,2.15.81,3.14,3.14,0,0,1,.72,2.16v4.31a1.17,1.17,0,0,0,.1.52.68.68,0,0,0,.36.31l.35.12a2.53,2.53,0,0,0,.47.09Z"/><path class="cls-1" d="M140.36,43.08h-1.93a2.75,2.75,0,0,1,.51.81,2.36,2.36,0,0,1,.17.89,2.15,2.15,0,0,1-.33,1.14,2.64,2.64,0,0,1-.85.87,4.47,4.47,0,0,1-1.26.54,6,6,0,0,1-1.56.19h-1.43a1.2,1.2,0,0,0-.23.25.56.56,0,0,0-.13.33.55.55,0,0,0,.31.54,3,3,0,0,0,1.12.17q.8,0,1.62.07l1.17.06a3.51,3.51,0,0,1,1,.21,3.09,3.09,0,0,1,.87.47,2.48,2.48,0,0,1,.67.79,2.25,2.25,0,0,1,.26,1.1,2.6,2.6,0,0,1-.32,1.26,2.88,2.88,0,0,1-1,1,5.58,5.58,0,0,1-1.67.69,10,10,0,0,1-2.4.25,8.6,8.6,0,0,1-3.52-.56,1.8,1.8,0,0,1-1.2-1.69,1.34,1.34,0,0,1,.65-1.14,3.83,3.83,0,0,1,2-.49v-.11a3.18,3.18,0,0,1-1.26-.73,1.45,1.45,0,0,1-.45-1.05,1,1,0,0,1,.18-.62,1.79,1.79,0,0,1,.46-.45,2.47,2.47,0,0,1,.6-.29l.59-.19v-.1a4.26,4.26,0,0,1-1.75-1.07,2.26,2.26,0,0,1-.56-1.55,2.36,2.36,0,0,1,1.19-2.07,5.44,5.44,0,0,1,3-.77,6.58,6.58,0,0,1,1.16.1c.37.07.65.13.85.18h3.41Zm-2.65,9.06a1.19,1.19,0,0,0-.17-.59,1.25,1.25,0,0,0-.75-.48,8.37,8.37,0,0,0-1-.07l-2,0a2.36,2.36,0,0,0-.51.62,1.72,1.72,0,0,0-.21.87,1.16,1.16,0,0,0,.12.48,1.49,1.49,0,0,0,.39.49,2.45,2.45,0,0,0,.68.4,3.39,3.39,0,0,0,1.14.14,2.88,2.88,0,0,0,1.73-.44A1.64,1.64,0,0,0,137.7,52.14Zm-1.47-7.39a3.41,3.41,0,0,0-.33-1.63,1.07,1.07,0,0,0-1-.6,1.1,1.1,0,0,0-.6.16,1.18,1.18,0,0,0-.41.47,2.18,2.18,0,0,0-.2.7,6.3,6.3,0,0,0-.05.82,3.27,3.27,0,0,0,.33,1.57,1,1,0,0,0,1,.62,1.08,1.08,0,0,0,1-.55A3,3,0,0,0,136.24,44.75Z"/></g></g></svg>