<svg id="Layer_4" data-name="Layer 4" xmlns="http://www.w3.org/2000/svg" viewBox="0 0 62 66"><defs><style>.cls-1{fill:#d59541;}</style></defs><title>wifi</title><path class="cls-1" d="M18.37,40.27c-.14-.21,0-.36.12-.51s.26-.24.39-.36a.53.53,0,0,0,.2-.32.53.53,0,0,1,.14-.22l.25-.28c-.13-.09-.3-.06-.39-.2v-.2a.65.65,0,0,1-.42-.36.59.59,0,0,1,.22-.35l.2-.18a.48.48,0,0,1,.36-.16c.1,0,.16-.06.23-.14-.2-.59-.44-1.17-.64-1.76l.26-.33a5.57,5.57,0,0,1-.92-.82l.12-.87a.36.36,0,0,1,.15-.21l.9-.81.17-.16c.14-.13.18-.13.33,0s0,0,.07.05a.09.09,0,0,0,.08,0s0-.05,0-.08a.58.58,0,0,0,0-.07l.22-.19,8.76-7.17c.18-.15.37-.29.57-.42a1,1,0,0,1,.5-.17.55.55,0,0,1,.48.17c.27.29.55.56.82.84l1.2,1.22.14.13s.08,0,.09-.06a.25.25,0,0,0,0-.14,1.17,1.17,0,0,0-.08-.3,1.78,1.78,0,0,0-.2-.26.39.39,0,0,1-.1-.28l.1-.07.86-.62a.4.4,0,0,1,.27-.1s0,0,.07,0-.06-.14-.1-.2-.13-.2-.18-.3a.29.29,0,0,1,.07-.35l.4-.39,5.09-4.69q2.3-2.12,4.59-4.24a.44.44,0,0,1,.58-.09l.31.15.19-.17a4.08,4.08,0,0,1-.11-1q-.06-1.55-.12-3.09c0-.19,0-.37,0-.56a1,1,0,0,1,.13-.48.69.69,0,0,1,1-.24,1.63,1.63,0,0,1,.2.17l2.7,2.55.22.2.79-.73,1.47-1.36a1.39,1.39,0,0,1,.25-.2,3.83,3.83,0,0,0,.78-.62l.76-.74A.36.36,0,0,0,53,7.94a.51.51,0,0,1,.19-.29l2.16-2,1.09-1c.09-.09.2-.16.22-.31a4,4,0,0,1,.56-.64s.09,0,.13-.06.09-.06.1-.1a.46.46,0,0,1,.3-.3A.22.22,0,0,0,57.9,3a.6.6,0,0,1,.26-.27,1.44,1.44,0,0,0,.23-.17l1-.91.12-.13a1.86,1.86,0,0,1,.11-.17l.26-.24a5.14,5.14,0,0,1,1.23,1.3,1.48,1.48,0,0,1-.41.36.64.64,0,0,0-.16.13L59.2,4.22,59,4.34a.26.26,0,0,0-.08.08.72.72,0,0,1-.43.37,1,1,0,0,1-.39.46,3.37,3.37,0,0,1-.4.23l-.12.08a10.71,10.71,0,0,0-.82.76c-.39.44-.84.82-1.26,1.23s-.86.81-1.29,1.21c-.09.09-.17.19-.32.19s-.1.06-.14.1c-.39.36-.78.72-1.17,1.08a2,2,0,0,0-.27.35,2.1,2.1,0,0,1-.3.36l-1.92,1.83c-.06.06-.14.11-.14.21s.09,0,.14,0l.49-.28.18.17a.43.43,0,0,1,0,.67c-.09.1-.2.19-.3.28.06.37-.19.53-.43.73l-.14-.11L49.54,14a.48.48,0,0,0-.51-.14l-.17.48.15.22a.67.67,0,0,1-.07.1.88.88,0,0,0-.32.51.31.31,0,0,1-.09.15l-.27.26-.17,0a.76.76,0,0,0,0,.16c0,.09,0,.18,0,.26a1.06,1.06,0,0,1,0,.26c-.09.31-.27.39-.58.31h-.07c0,.08-.05.16-.09.24s-.09.15-.13.23a.44.44,0,0,0,.06.11c.23.23.13.52.12.78,0,.06-.07.11-.12.16l-1,1-2.7,2.68-3.29,3.25-2.4,2.39-.25.25a.42.42,0,0,1-.57,0c-.1-.07-.2-.16-.3-.24l-.15-.09-.07.11a.82.82,0,0,1-.07.16l-.76.94-.08.05a1.09,1.09,0,0,1-.37-.23,1.23,1.23,0,0,0-.17-.16.78.78,0,0,0-.19,0s-.05,0-.08,0a.65.65,0,0,0-.14.06c.07.07.13.13.18.19s.24.31.35.47a.51.51,0,0,1,0,.53l-.09.18a.69.69,0,0,0,.13.86l1.27,1.32a.49.49,0,0,0,.43.2h.14c.28.3.28.34,0,.73l.18.19A19.85,19.85,0,0,0,40.18,35a33.16,33.16,0,0,0,3.41,1.87.58.58,0,0,1,.31.23c-.08.21-.17.43-.26.65,0,.06-.06.15-.11.16s-.21.2-.29.32q-.27.44-.53.88a2.52,2.52,0,0,1-.2.39c-.12.14-.19.3-.29.44a.93.93,0,0,0-.24.49s0,.09-.07.13a5,5,0,0,1-.49.66,2.06,2.06,0,0,0-.32.49.61.61,0,0,1-.42.33l-.25.08a33.3,33.3,0,0,1-7.15-4.57l-.14.13a.89.89,0,0,1-.37.28.57.57,0,0,0-.18.15l-2.23,2.1a2.64,2.64,0,0,0-.2.25l-.13.15c-.15.15-.29.3-.45.43s-.46.55-.73.81c.06.28.12.56.17.84a.45.45,0,0,0,.24.32l.27.12.18.09a.16.16,0,0,1,0,.23,1.09,1.09,0,0,1-.11.14l-.18.2a.44.44,0,0,0-.11.41c.12.61.23,1.22.34,1.82,0,.26.11.52.14.78a.58.58,0,0,0,.37.49l.14.05a.33.33,0,0,1,.14.53.88.88,0,0,1-.25.2L28.75,49l-2.23,1.33-.21.1a.11.11,0,0,1-.14-.07.76.76,0,0,1,0-.14L25.89,48l-.27-2.37c-.07-.59-.13-1.17-.2-1.76,0-.33-.07-.66-.12-1a1.44,1.44,0,0,0-.85-1.09,1.41,1.41,0,0,0-1.2,0,3.15,3.15,0,0,0-1,.66l-.28.28c-.24-.13-.46-.25-.68-.38A2.13,2.13,0,0,1,21,42c-.09-.09-.17-.19-.28-.28l-.39.33L20.05,42a3.44,3.44,0,0,0-.57.59.14.14,0,0,0,0,.13c0,.08-.06.12-.11.16L18.15,44a.86.86,0,0,0-.25.39c-.07.23-.16.46-.24.7a.79.79,0,0,1-.22.34l-2.27,2.19a1.08,1.08,0,0,1-.14.1.43.43,0,0,0,0,.11c.13.28.13.28-.1.49l-2,1.84-.14.12a1.29,1.29,0,0,0,.1.16l.73.81a.38.38,0,0,0,.22.14.14.14,0,0,1,.13.16c0,.13.12.17.15.3L14,52l-1,1-.21.22.36.42a1.32,1.32,0,0,1-.64.67.18.18,0,0,1-.22,0L12.07,54a1.38,1.38,0,0,0-.53.77L11,56.66l-.31,1.1s0,.09-.06.15l-.4.16c-.27-.16-.42-.45-.68-.62a1.32,1.32,0,0,0-.24.83c.06.73.1,1.47.16,2.2,0,.51.13,1,.2,1.52,0,.18,0,.35.07.53a.94.94,0,0,1,0,.41.26.26,0,0,1-.24.19.68.68,0,0,1-.37-.05,4.7,4.7,0,0,1-.6-.31c-.45-.31-.9-.64-1.33-1a22.9,22.9,0,0,1-1.77-1.46l-2-1.86c-.51-.48-1-1-1.52-1.44a4.92,4.92,0,0,1-.44-.51.68.68,0,0,1-.14-.38.44.44,0,0,1,.18-.41l.2-.12c.16-.08.31-.17.48-.23a2.32,2.32,0,0,0,.71-.51l3.73-3.61,2.67-2.58,2.61-2.52.48-.47a.47.47,0,0,1,.37-.16.42.42,0,0,0,.33-.16L14.47,44l3.21-3.08.54-.5ZM30.22,25.21c-.27-.26-.49-.28-.74-.07l-.11.1L27.73,26.8,24.39,30l-1.55,1.48a.6.6,0,0,0,0,.92.87.87,0,0,1,.73.13l.06,0,6.27-6,.08-.09v-.06A.89.89,0,0,1,30.22,25.21ZM32.1,37.45c0-.07,0-.14,0-.21a.94.94,0,0,0-.68-.9,1.12,1.12,0,0,0-1.12.26l-1,.93-.18.19a1.18,1.18,0,0,0,.19.47,1.83,1.83,0,0,0,.3.35,1.2,1.2,0,0,0,.88.26h.23a.12.12,0,0,1,.08.07.13.13,0,0,1,0,.1.38.38,0,0,1-.13.07,1.61,1.61,0,0,1-1,.06,1.71,1.71,0,0,1-.9-.62l-.18-.23a1.09,1.09,0,0,0-.31.34.79.79,0,0,0-.12.65,1.13,1.13,0,0,0,1.36,1h.06l.39-.05c.34-.29,2.26-2.18,2.4-2.37ZM45.84,13.38l.08-.07L47,12.25l.46-.46c.09-.09.1-.17,0-.26L47,11a.19.19,0,0,0-.24,0l-.07,0c-.25.16-.31.16-.55,0l-.18-.15-.14-.1a.24.24,0,0,0-.34,0l-.2.21c0,.18,0,.34,0,.51s0,.31,0,.47,0,.33,0,.5,0,.31,0,.47a1.5,1.5,0,0,0,.05.49Zm-40.79,45a.44.44,0,0,0,.11,0,1.11,1.11,0,0,0,.16-.13l1.74-1.63a1.28,1.28,0,0,0,.16-.17.21.21,0,0,0,0-.27.22.22,0,0,0-.29,0,1.08,1.08,0,0,0-.18.15L5,57.88a.58.58,0,0,0-.14.19A.22.22,0,0,0,5.05,58.35ZM21.89,33.93a1.38,1.38,0,0,0-.4-.43C21.53,33.77,21.58,33.82,21.89,33.93Zm-2.18,1.23a1.17,1.17,0,0,0,.39.45l0,0A.62.62,0,0,0,19.71,35.16Z"/></svg>